HIERARCHY
ROOT Hips
{
 OFFSET 0.000000 0.000000 0.000000
 CHANNELS 6 Xposition Yposition Zposition Yrotation Xrotation Zrotation
 JOINT Chest
 {
  OFFSET 0.000000 9.585900 0.002600
  CHANNELS 3 Yrotation Xrotation Zrotation
  JOINT Chest2
  {
   OFFSET 0.000000 9.601200 -0.005300
   CHANNELS 3 Yrotation Xrotation Zrotation
   JOINT Chest3
   {
    OFFSET 0.000000 9.561800 0.000000
    CHANNELS 3 Yrotation Xrotation Zrotation
    JOINT Chest4
    {
     OFFSET 0.000000 9.552100 0.000000
     CHANNELS 3 Yrotation Xrotation Zrotation
     JOINT Neck
     {
      OFFSET 0.000000 14.453000 0.000000
      CHANNELS 3 Yrotation Xrotation Zrotation
      JOINT Head
      {
       OFFSET 0.000000 8.936500 -0.011300
       CHANNELS 3 Yrotation Xrotation Zrotation
       End Site
       {
        OFFSET 0.000000 17.073600 -0.006000
       }
      }
     }
     JOINT RightCollar
     {
      OFFSET -2.921100 9.558500 0.000000
      CHANNELS 3 Yrotation Xrotation Zrotation
      JOINT RightShoulder
      {
       OFFSET -13.519700 0.000000 0.000000
       CHANNELS 3 Yrotation Xrotation Zrotation
       JOINT RightElbow
       {
        OFFSET 0.000000 -29.696600 0.000000
        CHANNELS 3 Yrotation Xrotation Zrotation
        JOINT RightWrist
        {
         OFFSET 0.000000 -24.004700 0.000000
         CHANNELS 3 Yrotation Xrotation Zrotation
         End Site
         {
          OFFSET 0.000000 -17.728500 0.000000
         }
        }
       }
      }
     }
     JOINT LeftCollar
     {
      OFFSET 2.921100 9.558500 0.000000
      CHANNELS 3 Yrotation Xrotation Zrotation
      JOINT LeftShoulder
      {
       OFFSET 13.519700 0.000000 0.000000
       CHANNELS 3 Yrotation Xrotation Zrotation
       JOINT LeftElbow
       {
        OFFSET 0.000000 -29.696600 0.000000
        CHANNELS 3 Yrotation Xrotation Zrotation
        JOINT LeftWrist
        {
         OFFSET 0.000000 -24.004700 0.000000
         CHANNELS 3 Yrotation Xrotation Zrotation
         End Site
         {
          OFFSET 0.000000 -17.728500 0.000000
         }
        }
       }
      }
     }
    }
   }
  }
 }
 JOINT RightHip
 {
  OFFSET -7.771700 -0.012900 -0.001300
  CHANNELS 3 Yrotation Xrotation Zrotation
  JOINT RightKnee
  {
   OFFSET 0.000000 -40.869800 0.001200
   CHANNELS 3 Yrotation Xrotation Zrotation
   JOINT RightAnkle
   {
    OFFSET 0.000000 -39.717900 0.002100
    CHANNELS 3 Yrotation Xrotation Zrotation
    JOINT RightToe
    {
     OFFSET 0.000000 -4.965400 11.033500
     CHANNELS 3 Yrotation Xrotation Zrotation
     End Site
     {
      OFFSET 0.000000 -1.423100 5.872300
     }
    }
   }
  }
 }
 JOINT LeftHip
 {
  OFFSET 7.771700 -0.012900 -0.001300
  CHANNELS 3 Yrotation Xrotation Zrotation
  JOINT LeftKnee
  {
   OFFSET 0.000000 -40.869800 0.001200
   CHANNELS 3 Yrotation Xrotation Zrotation
   JOINT LeftAnkle
   {
    OFFSET 0.000000 -39.717900 0.002100
    CHANNELS 3 Yrotation Xrotation Zrotation
    JOINT LeftToe
    {
     OFFSET 0.000000 -4.965400 11.033500
     CHANNELS 3 Yrotation Xrotation Zrotation
     End Site
     {
      OFFSET 0.000000 -1.423100 5.872300
     }
    }
   }
  }
 }
}
MOTION
Frames: 14
Frame Time: 0.008333
0.000000 85.388000 0.000000 0.000000 -5.767877 0.000000 0.000000 11.653817 0.000000 0.000000 -5.885947 0.000000 0.000000 -0.000000 0.000000 0.000000 -0.000000 0.000000 0.000000 12.528835 0.000000 0.000000 0.711642 0.000000 0.000000 -0.000000 0.000000 0.000000 0.000000 -90.000000 0.000000 -2.309062 0.000000 0.000000 2.309062 0.000000 0.000000 -0.000000 0.000000 0.000000 -0.000000 90.000000 0.000000 -2.309062 0.000000 0.000000 2.309062 0.000000 0.000000 8.520406 0.000000 0.000000 1.905762 0.000000 -0.000000 -4.658285 0.000000 0.000000 -0.000000 0.000000 0.000000 8.520406 0.000000 0.000000 1.905762 0.000000 -0.000000 -4.658285 0.000000 0.000000 -0.000000 0.000000
-84.839985 62.096332 18.154820 173.215109 -49.577778 -1.194813 4.653393 25.350059 1.358699 0.664141 4.044418 0.180311 1.068717 6.458010 0.311122 3.678276 20.728808 1.472159 -3.906500 18.742088 1.585636 -7.641465 -0.769847 4.145946 2.037377 4.294834 3.921880 -10.557787 -5.707165 -13.174992 -133.392125 -66.593218 164.670964 12.136227 12.611103 -4.781180 -9.783719 2.905359 -0.800453 23.999716 -33.027524 8.813285 124.709574 -50.175648 -138.707830 22.883599 -30.968004 21.106194 3.053863 -17.513770 -2.867045 -0.858841 60.072345 -3.838518 3.061149 -5.229180 10.764579 0.050387 -0.147820 0.019257 -3.753182 -14.086854 5.696788 28.917563 75.866438 30.543626 0.994612 -11.040525 -5.362195 0.205581 0.749257 0.074752
-84.836703 62.095689 18.153644 173.216174 -49.563985 -1.217387 4.657985 25.344572 1.368097 0.663923 4.048759 0.171046 1.071202 6.450984 0.318243 3.684479 20.724536 1.471497 -3.859773 18.779985 1.619026 -7.583293 -0.722658 4.184068 2.050016 4.316888 3.914562 -10.566198 -5.643930 -13.152293 -133.446355 -66.590097 164.726226 12.140460 12.620689 -4.773880 -9.762371 2.924082 -0.796166 23.997805 -33.016433 8.800389 124.801545 -50.254441 -138.726143 22.844360 -30.937286 21.065169 3.043970 -17.526786 -2.844970 -0.864517 60.069071 -3.837834 3.066728 -5.229567 10.759223 0.050986 -0.150087 0.018853 -3.762982 -14.106091 5.717314 28.946323 75.882159 30.576291 1.008620 -11.039154 -5.362914 0.193280 0.737606 0.071718
-84.834347 62.095423 18.151229 173.217388 -49.552463 -1.234009 4.663293 25.340065 1.373022 0.665239 4.042156 0.179223 1.070954 6.459592 0.302148 3.690550 20.715659 1.482044 -3.838749 18.795160 1.635490 -7.501367 -0.642935 4.216472 2.063974 4.334561 3.904481 -10.572916 -5.584276 -13.132390 -133.488878 -66.591331 164.770431 12.148546 12.613988 -4.775792 -9.754425 2.929869 -0.790240 24.009318 -32.994564 8.783816 124.916163 -50.330901 -138.759240 22.799523 -30.901612 21.024898 3.037388 -17.537488 -2.827718 -0.869436 60.068652 -3.839625 3.070122 -5.231316 10.756528 0.054053 -0.153075 0.019837 -3.769607 -14.118321 5.733572 28.953411 75.892876 30.586632 1.015787 -11.046951 -5.366353 0.193364 0.736494 0.073780
-84.833216 62.094978 18.147945 173.225872 -49.539579 -1.248383 4.663660 25.337469 1.372999 0.665190 4.040410 0.178956 1.070434 6.451955 0.308801 3.697030 20.718837 1.474367 -3.792906 18.838718 1.664247 -7.446554 -0.589097 4.248582 2.074759 4.344742 3.899985 -10.587209 -5.569387 -13.113131 -133.444031 -66.622563 164.741997 12.162644 12.576242 -4.795537 -9.734352 2.946404 -0.788049 24.022775 -32.969124 8.748191 125.062540 -50.397499 -138.842267 22.749306 -30.861328 20.986816 3.024591 -17.549548 -2.824404 -0.871260 60.071521 -3.834392 3.082679 -5.237688 10.751889 0.052960 -0.154174 0.018585 -3.775962 -14.132019 5.742133 28.954992 75.900993 30.592253 1.018726 -11.054328 -5.366957 0.190758 0.736210 0.077456
-84.831006 62.095065 18.143508 173.232321 -49.531657 -1.266770 4.672910 25.339125 1.379966 0.666133 4.039194 0.179051 1.071942 6.450236 0.309203 3.702458 20.715256 1.475351 -3.747249 18.883413 1.690426 -7.399155 -0.534130 4.279711 2.076034 4.345891 3.904892 -10.594193 -5.548545 -13.104527 -133.407796 -66.652867 164.725294 12.160628 12.587195 -4.800293 -9.719946 2.954761 -0.788893 24.048353 -32.921492 8.681466 125.257834 -50.476638 -138.987112 22.702930 -30.811453 20.951905 3.017304 -17.555709 -2.814325 -0.874056 60.073546 -3.827543 3.088820 -5.241362 10.754075 0.051648 -0.156298 0.010724 -3.781068 -14.140601 5.756951 28.954349 75.913510 30.597575 1.021789 -11.062856 -5.369914 0.191852 0.734767 0.078458
-84.828711 62.095633 18.137856 173.234669 -49.529164 -1.281583 4.686716 25.342755 1.388018 0.666998 4.038578 0.179080 1.073064 6.448982 0.309166 3.700549 20.709777 1.484420 -3.711588 18.919728 1.700707 -7.349609 -0.469341 4.305356 2.082032 4.350406 3.900112 -10.594923 -5.511977 -13.102789 -133.420359 -66.658007 164.744259 12.154758 12.645823 -4.777273 -9.699239 2.957125 -0.800813 24.056381 -32.892978 8.641602 125.434583 -50.558327 -139.092644 22.663732 -30.753383 20.922321 3.013684 -17.557296 -2.801403 -0.883999 60.078206 -3.828180 3.087105 -5.242781 10.749774 0.056759 -0.160874 0.010165 -3.785150 -14.143456 5.773034 28.953330 75.928460 30.600209 1.020107 -11.069537 -5.373376 0.196756 0.729149 0.080852
-84.826876 62.095292 18.132186 173.239631 -49.521663 -1.295590 4.696820 25.340597 1.394220 0.668361 4.037957 0.179242 1.075469 6.448164 0.309467 3.708475 20.707695 1.486456 -3.687273 18.948997 1.719604 -7.341143 -0.451970 4.321690 2.100977 4.373890 3.882168 -10.613086 -5.495987 -13.073298 -133.437299 -66.668576 164.768666 12.157697 12.620511 -4.802349 -9.690271 2.953844 -0.799739 24.041141 -32.883718 8.636527 125.582553 -50.635935 -139.149875 22.626757 -30.695844 20.898484 3.010568 -17.564572 -2.792063 -0.889062 60.084779 -3.825550 3.085950 -5.245607 10.748384 0.047932 -0.165316 0.010910 -3.792850 -14.152138 5.786441 28.958771 75.940873 30.605240 1.026146 -11.072431 -5.376500 0.212509 0.724224 0.083610
-84.826675 62.093868 18.126599 173.251394 -49.508110 -1.305156 4.698694 25.331366 1.393426 0.674996 4.038474 0.173059 1.078511 6.443550 0.309565 3.708364 20.704871 1.493018 -3.670723 18.971940 1.735816 -7.325555 -0.425581 4.333422 2.109895 4.386176 3.883500 -10.603282 -5.476062 -13.069823 -133.448349 -66.689127 164.785207 12.150125 12.621542 -4.819052 -9.684251 2.958855 -0.801316 24.028868 -32.878896 8.633145 125.710503 -50.710975 -139.203579 22.585455 -30.640922 20.878895 3.008631 -17.579176 -2.802828 -0.883768 60.095476 -3.803345 3.094985 -5.251291 10.743836 0.046289 -0.168447 0.009232 -3.804548 -14.167755 5.790163 28.963608 75.952214 30.609322 1.022096 -11.077599 -5.378533 0.212284 0.721564 0.086492
-84.825184 62.092504 18.120675 173.252871 -49.497584 -1.314438 4.706449 25.323709 1.397836 0.676579 4.036079 0.173195 1.079885 6.441250 0.309761 3.716590 20.700238 1.496673 -3.655560 19.001551 1.747481 -7.283119 -0.366160 4.348316 2.114404 4.399822 3.885505 -10.584386 -5.463452 -13.071690 -133.475441 -66.700273 164.811094 12.159474 12.657442 -4.792597 -9.676993 2.961847 -0.806057 24.017532 -32.852787 8.619292 125.826862 -50.778644 -139.274956 22.534682 -30.580508 20.858875 3.008773 -17.591485 -2.797365 -0.885431 60.104901 -3.798176 3.101392 -5.254284 10.741716 0.045355 -0.172141 0.010295 -3.810930 -14.179163 5.802133 28.975613 75.964897 30.620128 1.020428 -11.086923 -5.379497 0.214626 0.720560 0.088257
-84.823051 62.090927 18.114749 173.259302 -49.487324 -1.331400 4.714480 25.315347 1.406343 0.673669 4.033573 0.177404 1.085369 6.438612 0.308559 3.718678 20.699298 1.494705 -3.631085 19.032591 1.763314 -7.224006 -0.264884 4.372896 2.112869 4.405129 3.894187 -10.552448 -5.450885 -13.083705 -133.499293 -66.705397 164.829219 12.156753 12.658596 -4.798478 -9.668394 2.963360 -0.802468 24.015680 -32.816771 8.605413 125.893954 -50.799012 -139.338206 22.438157 -30.493588 20.854974 3.005710 -17.603326 -2.786917 -0.893597 60.113869 -3.796981 3.105309 -5.254750 10.735469 0.044560 -0.176456 0.013303 -3.820250 -14.190192 5.818595 28.991064 75.978470 30.634358 1.021186 -11.100532 -5.378780 0.220195 0.723139 0.088864
-84.823739 62.088978 18.108563 173.271921 -49.476572 -1.336174 4.708673 25.306802 1.398378 0.671788 4.031846 0.179321 1.093353 6.435919 0.307488 3.719112 20.695925 1.494866 -3.611626 19.057488 1.776815 -7.189333 -0.201380 4.393157 2.129641 4.417478 3.899379 -10.542717 -5.450318 -13.089588 -133.517910 -66.705814 164.827940 12.154278 12.657930 -4.804530 -9.648278 2.961802 -0.796108 24.000909 -32.713991 8.601561 125.990488 -50.821487 -139.442701 22.386315 -30.407250 20.812099 3.004233 -17.616525 -2.792671 -0.903666 60.128302 -3.803394 3.105907 -5.259556 10.734198 0.043807 -0.180193 0.015610 -3.827802 -14.202796 5.817202 28.994447 75.986771 30.637705 1.010331 -11.106645 -5.377947 0.227090 0.722594 0.092319
-84.824304 62.086823 18.102575 173.287960 -49.465889 -1.344312 4.716609 25.297805 1.393418 0.665674 4.027848 0.187351 1.088882 6.437002 0.304904 3.731790 20.690309 1.501103 -3.613951 19.072802 1.784838 -7.176906 -0.180261 4.402521 2.145871 4.430584 3.907735 -10.533495 -5.455554 -13.102037 -133.536530 -66.708658 164.815976 12.159379 12.659885 -4.777472 -9.661720 2.967945 -0.792012 23.990137 -32.645341 8.616069 126.008153 -50.857598 -139.475453 22.314604 -30.295981 20.766197 2.999189 -17.628910 -2.797791 -0.915404 60.141463 -3.811017 3.107641 -5.265839 10.732729 0.044324 -0.183817 0.016895 -3.837341 -14.215149 5.816426 28.994460 75.995735 30.637384 1.005485 -11.116329 -5.380269 0.237000 0.725525 0.097957
-84.821389 62.086170 18.095942 173.284945 -49.468308 -1.357963 4.733353 25.301574 1.409125 0.667179 4.026065 0.184953 1.084365 6.435555 0.311073 3.748992 20.689972 1.489243 -3.611418 19.082685 1.808657 -7.161959 -0.160966 4.412727 2.209384 4.439245 3.940637 -10.552616 -5.473786 -13.128938 -133.542905 -66.709375 164.837147 12.152898 12.667508 -4.813969 -9.665684 2.968430 -0.767895 23.960026 -32.555115 8.639668 126.017031 -50.878888 -139.508279 22.209214 -30.132998 20.721389 2.997712 -17.625923 -2.778436 -0.919952 60.147080 -3.812920 3.107085 -5.271053 10.730218 0.042913 -0.181397 0.017139 -3.839337 -14.213507 5.837597 28.971024 76.021276 30.611246 1.023748 -11.133403 -5.375857 0.222279 0.723424 0.097887
